<?xml version="1.0" encoding="UTF-8" standalone="no"?><svg xmlns="http://www.w3.org/2000/svg" xmlns:xlink="http://www.w3.org/1999/xlink" contentScriptType="application/ecmascript" contentStyleType="text/css" height="101px" preserveAspectRatio="none" style="width:622px;height:101px;" version="1.1" viewBox="0 0 622 101" width="622px" zoomAndPan="magnify"><defs><filter height="300%" id="f1ekal05yh4vbd" width="300%" x="-1" y="-1"><feGaussianBlur result="blurOut" stdDeviation="2.0"/><feColorMatrix in="blurOut" result="blurOut2" type="matrix" values="0 0 0 0 0 0 0 0 0 0 0 0 0 0 0 0 0 0 .4 0"/><feOffset dx="4.0" dy="4.0" in="blurOut2" result="blurOut3"/><feBlend in="SourceGraphic" in2="blurOut3" mode="normal"/></filter></defs><g><!--MD5=[979da56a7f83e2393dc758167ae295d0]
cluster Server--><polygon fill="#FFFFFF" filter="url(#f1ekal05yh4vbd)" points="16,6,75,6,82,28.2969,423,28.2969,423,87,16,87,16,6" style="stroke:#000000;stroke-width:1.5;"/><line style="stroke:#000000;stroke-width:1.5;" x1="16" x2="82" y1="28.2969" y2="28.2969"/><text fill="#000000" font-family="sans-serif" font-size="14" font-weight="bold" lengthAdjust="spacing" textLength="53" x="20" y="20.9951">Server</text><!--MD5=[1b301788db9149fb7ae8e28a8be26935]
entity ssr--><polygon fill="#FEFECE" filter="url(#f1ekal05yh4vbd)" points="291.5,43,301.5,33,414.5,33,414.5,69.2969,404.5,79.2969,291.5,79.2969,291.5,43" style="stroke:#000000;stroke-width:1.5;"/><line style="stroke:#000000;stroke-width:1.5;" x1="404.5" x2="414.5" y1="43" y2="33"/><line style="stroke:#000000;stroke-width:1.5;" x1="291.5" x2="404.5" y1="43" y2="43"/><line style="stroke:#000000;stroke-width:1.5;" x1="404.5" x2="404.5" y1="43" y2="79.2969"/><text fill="#000000" font-family="sans-serif" font-size="14" lengthAdjust="spacing" textLength="83" x="306.5" y="65.9951">Render 畫面</text><!--MD5=[289acef27fad44ac004bd9bf746b1924]
entity vue--><polygon fill="#FEFECE" filter="url(#f1ekal05yh4vbd)" points="24,43,34,33,138,33,138,69.2969,128,79.2969,24,79.2969,24,43" style="stroke:#000000;stroke-width:1.5;"/><line style="stroke:#000000;stroke-width:1.5;" x1="128" x2="138" y1="43" y2="33"/><line style="stroke:#000000;stroke-width:1.5;" x1="24" x2="128" y1="43" y2="43"/><line style="stroke:#000000;stroke-width:1.5;" x1="128" x2="128" y1="43" y2="79.2969"/><text fill="#000000" font-family="sans-serif" font-size="14" lengthAdjust="spacing" textLength="74" x="39" y="65.9951">Vue.js 專案</text><!--MD5=[8fc3522a43f8c7199df5e09e5bb0188e]
entity user--><ellipse cx="559" cy="25" fill="#FEFECE" filter="url(#f1ekal05yh4vbd)" rx="8" ry="8" style="stroke:#A80036;stroke-width:1.5;"/><path d="M559,33 L559,60 M546,41 L572,41 M559,60 L546,75 M559,60 L572,75 " fill="none" filter="url(#f1ekal05yh4vbd)" style="stroke:#A80036;stroke-width:1.5;"/><text fill="#000000" font-family="sans-serif" font-size="14" lengthAdjust="spacing" textLength="112" x="503" y="93.4951">使用者（機器人）</text><!--MD5=[c58f0900a54cca2794f425e8a748472f]
link vue to ssr--><path d="M138.0201,56 C181.2197,56 240.6895,56 286.1318,56 " fill="none" id="vue-to-ssr" style="stroke:#A80036;stroke-width:1.0;"/><polygon fill="#A80036" points="291.3215,56,282.3215,52,286.3215,56,282.3215,60,291.3215,56" style="stroke:#A80036;stroke-width:1.0;"/><text fill="#000000" font-family="sans-serif" font-size="13" lengthAdjust="spacing" textLength="117" x="156.25" y="49.0669">空白頁面，沒有資料</text><!--MD5=[d49772f982342720777480c70565a229]
link ssr to user--><path d="M414.5278,56 C440.7585,56 471.2972,56 497.5225,56 " fill="none" id="ssr-to-user" style="stroke:#A80036;stroke-width:1.0;"/><polygon fill="#A80036" points="502.7075,56,493.7075,52,497.7075,56,493.7075,60,502.7075,56" style="stroke:#A80036;stroke-width:1.0;"/><text fill="#000000" font-family="sans-serif" font-size="13" lengthAdjust="spacing" textLength="52" x="432.75" y="49.0669">完整頁面</text><!--MD5=[15a6cc015af24e3a707c4e96ab15af22]
@startuml
actor "使用者（機器人）" as user

package Server {
  node "Render 畫面" as ssr
  node "Vue.js 專案" as vue
}

vue -right-> ssr : 空白頁面，沒有資料
ssr -right-> user : 完整頁面
@enduml

PlantUML version 1.2021.4(Sun Apr 04 08:49:39 UTC 2021)
(GPL source distribution)
Java Runtime: OpenJDK Runtime Environment
JVM: OpenJDK 64-Bit Server VM
Default Encoding: UTF-8
Language: en
Country: null
--></g></svg>